<?xml version="1.0" encoding="UTF-8"?>
<svg width="24" height="24" viewBox="0 0 24 24" fill="none" xmlns="http://www.w3.org/2000/svg">
<path d="M22.56 12.25C22.56 11.47 22.49 10.72 22.36 10H12V14.26H17.92C17.67 15.63 16.89 16.82 15.71 17.57V20.34H19.28C21.36 18.42 22.56 15.6 22.56 12.25Z" fill="#4285F4"/>
<path d="M12 23C14.97 23 17.46 22.02 19.28 20.34L15.71 17.57C14.73 18.23 13.48 18.68 12 18.68C9.14 18.68 6.71 16.76 5.84 14.14H2.18V17.04C4.01 20.64 7.7 23 12 23Z" fill="#34A853"/>
<path d="M5.84 14.14C5.63 13.5 5.5 12.77 5.5 12C5.5 11.23 5.63 10.5 5.84 9.86V6.96H2.18C1.41 8.63 1 10.56 1 12.5C1 14.44 1.41 16.37 2.18 18.04L5.84 14.14Z" fill="#FBBC05"/>
<path d="M12 5.38C13.62 5.38 15.06 5.94 16.21 7.02L19.34 3.89C17.45 2.09 14.97 1 12 1C7.7 1 4.01 3.36 2.18 6.96L5.84 9.86C6.71 7.24 9.14 5.38 12 5.38Z" fill="#EA4335"/>
</svg>
